<svg width="30" height="30" viewBox="0 0 30 30" fill="none" xmlns="http://www.w3.org/2000/svg">
<g clip-path="url(#clip0_12_864)">
<path d="M15.0001 29.4C22.953 29.4 29.4001 22.9529 29.4001 15C29.4001 7.04707 22.953 0.599976 15.0001 0.599976C7.0472 0.599976 0.600098 7.04707 0.600098 15C0.600098 22.9529 7.0472 29.4 15.0001 29.4Z" stroke="white" stroke-miterlimit="10" stroke-linecap="round"/>
<path d="M17.9597 21.3168C17.8721 20.3496 17.9057 19.6746 17.9057 18.7908C18.3437 18.561 19.1285 17.0958 19.2611 15.858C19.6055 15.8298 20.1485 15.4938 20.3075 14.1672C20.3933 13.455 20.0525 13.0542 19.8449 12.9282C20.4053 11.2428 21.5693 6.02877 17.6921 5.48997C17.2931 4.78917 16.2713 4.43457 14.9435 4.43457C9.6311 4.53237 8.9903 8.44617 10.1549 12.9282C9.9479 13.0542 9.6071 13.455 9.6923 14.1672C9.8519 15.4938 10.3943 15.8298 10.7387 15.858C10.8707 17.0952 11.6867 18.561 12.1259 18.7908C12.1259 19.6746 12.1589 20.3496 12.0713 21.3168C11.3147 23.3508 7.4291 23.5098 5.1875 25.4712C7.5311 27.831 11.3291 29.5188 15.3371 29.5188C19.3451 29.5188 24.0563 26.3544 24.8405 25.491C22.6127 23.5116 18.7181 23.358 17.9597 21.3168Z" fill="white"/>
</g>
<defs>
<clipPath id="clip0_12_864">
<rect width="30" height="30" fill="white"/>
</clipPath>
</defs>
</svg>
