<svg width="20" height="23" viewBox="0 0 20 23" fill="none" xmlns="http://www.w3.org/2000/svg">
<path d="M16.5777 11.6593C16.4953 11.5774 16.3975 11.5125 16.2899 11.4684C16.1824 11.4243 16.0672 11.4018 15.951 11.4022C15.8347 11.4026 15.7197 11.4259 15.6125 11.4708C15.5053 11.5157 15.4079 11.5812 15.326 11.6637C15.2441 11.7462 15.1793 11.844 15.1352 11.9515C15.0911 12.0591 15.0686 12.1742 15.069 12.2905C15.0694 12.4067 15.0927 12.5217 15.1376 12.6289C15.1824 12.7362 15.248 12.8335 15.3304 12.9154C16.079 13.656 16.6731 14.5377 17.0786 15.5096C17.484 16.4814 17.6926 17.524 17.6924 18.5769C17.6924 19.6562 14.5874 21.2308 9.73082 21.2308C4.87429 21.2308 1.76929 19.6562 1.76929 18.5769C1.76788 17.5309 1.97263 16.4948 2.37183 15.5279C2.77103 14.5611 3.35686 13.6823 4.09582 12.9419C4.26058 12.7762 4.35306 12.552 4.35306 12.3183C4.35306 12.0846 4.26058 11.8604 4.09582 11.6946C3.93008 11.5299 3.70587 11.4374 3.47217 11.4374C3.23847 11.4374 3.01426 11.5299 2.84852 11.6946C1.94188 12.5962 1.22324 13.6688 0.734277 14.8502C0.245312 16.0316 -0.00425245 17.2984 5.48177e-05 18.5769C5.48177e-05 21.4519 5.01582 23 9.73082 23C14.4458 23 19.4616 21.4519 19.4616 18.5769C19.465 17.2901 19.2117 16.0154 18.7165 14.8276C18.2213 13.6398 17.4942 12.5627 16.5777 11.6593Z" fill="white"/>
<path d="M9.73088 12.3846C10.9556 12.3846 12.1528 12.0214 13.1711 11.341C14.1895 10.6606 14.9831 9.6935 15.4518 8.562C15.9205 7.43051 16.0431 6.18544 15.8042 4.98425C15.5653 3.78306 14.9755 2.6797 14.1095 1.81369C13.2435 0.947678 12.1401 0.357918 10.9389 0.118986C9.73775 -0.119945 8.49268 0.00268302 7.36119 0.471364C6.22969 0.940045 5.26259 1.73373 4.58217 2.75205C3.90175 3.77037 3.53857 4.96759 3.53857 6.19231C3.53857 7.83461 4.19098 9.40965 5.35226 10.5709C6.51354 11.7322 8.08858 12.3846 9.73088 12.3846ZM9.73088 1.76923C10.6057 1.76923 11.4608 2.02864 12.1882 2.51466C12.9156 3.00067 13.4825 3.69146 13.8173 4.49967C14.152 5.30788 14.2396 6.19722 14.069 7.05521C13.8983 7.9132 13.477 8.70132 12.8585 9.3199C12.2399 9.93847 11.4518 10.3597 10.5938 10.5304C9.73579 10.7011 8.84645 10.6135 8.03824 10.2787C7.23003 9.94393 6.53924 9.37701 6.05323 8.64964C5.56721 7.92227 5.3078 7.06711 5.3078 6.19231C5.3078 5.01924 5.77381 3.89421 6.60329 3.06472C7.43278 2.23523 8.55781 1.76923 9.73088 1.76923Z" fill="white"/>
</svg>
